# xmcd
#
# Track frame offsets: 
#        150
#        13348
#        24836
#        34498
#        44730
#        55818
#        68780
#        79847
#        92345
#        101897
#        114031
#        126174
#        137409
#        147335
#        156319
#        167616
#        182786
#        195520
#        206966
#        217646
#        230820
#        244096
#        255395
#        264307
#        278483
#        291773
#
# Disc length: 4045 seconds
#
# Revision: 1
# Processed by: cddbd v1.5.2PL0 Copyright (c) Steve Scherf et al.
# Submitted via: ExactAudioCopy v0.99pb4
#
DISCID=720fcb1a
DTITLE=Lefty Frizzell - Always Late
DYEAR=2007
DGENRE=Country
TTITLE0=It Gets Late So Early
TTITLE1=I'm Lost Between Right and Wrong
TTITLE2=Promises (Promises, Promises)
TTITLE3=Today is That Tomorrow (I Dreamed of Yesterday)
TTITLE4=First to Have a Second Chance
TTITLE5=These Hands
TTITLE6=Heart's Highway
TTITLE7=I'm a Boy Left Alone
TTITLE8=Just Can't Live That Fast (Anymore)
TTITLE9=The Waltz of the Angels
TTITLE10=Lullaby Waltz
TTITLE11=Glad I Found You
TTITLE12=Now That You Are Gone
TTITLE13=From an Angel to a Devil
TTITLE14=If You've Got the Money, I've Got the Time, Look What Thought
TTITLE14=s Will Do (Transciption)
TTITLE15=Shine Shave and Shower (It's Saturday)  (Transciption)
TTITLE16=I Want to Be With You Always  (Transciption)
TTITLE17=My Baby's Just Like Money, If You've Got the Money  (Transcip
TTITLE17=tion)
TTITLE18=Why Should I Be Lonely  (Transciption)
TTITLE19=Ida Red Boogie  (Transciption)
TTITLE20=I Love You a Thousand Ways  (Transciption)
TTITLE21=Always Late (With Your Kisses), If You've Got the Money  (Tra
TTITLE21=nsciption)
TTITLE22=If You've Got the Money, Sunday Down in Tennessee (Transcipti
TTITLE22=on)
TTITLE23=King Without a Queen (Transciption)
TTITLE24=Mom and Dad's Waltz (Transciption)
TTITLE25=Travelin' Blues, If You've Got the Money (Transciption)
EXTD=YEAR: 2007
EXTT0=
EXTT1=
EXTT2=
EXTT3=
EXTT4=
EXTT5=
EXTT6=
EXTT7=
EXTT8=
EXTT9=
EXTT10=
EXTT11=
EXTT12=
EXTT13=
EXTT14=
EXTT15=
EXTT16=
EXTT17=
EXTT18=
EXTT19=
EXTT20=
EXTT21=
EXTT22=
EXTT23=
EXTT24=
EXTT25=
PLAYORDER=
